<?xml version="1.0"?>
<svg xmlns="http://www.w3.org/2000/svg" xmlns:xlink="http://www.w3.org/1999/xlink" viewBox="0 0 64 64" width="512" height="512"><defs><linearGradient id="linear-gradient" x1="-1" y1="25" x2="63.281" y2="25" gradientUnits="userSpaceOnUse"><stop offset="0" stop-color="#fec183"/><stop offset="0.173" stop-color="#fea981"/><stop offset="0.538" stop-color="#fe6b7b"/><stop offset="1" stop-color="#ff1572"/></linearGradient><linearGradient id="linear-gradient-2" y1="32" x2="63.281" y2="32" xlink:href="#linear-gradient"/><linearGradient id="linear-gradient-3" y1="28.5" x2="63.281" y2="28.5" gradientTransform="translate(61.308 -17.783) rotate(78.69)" xlink:href="#linear-gradient"/><linearGradient id="linear-gradient-5" y1="13" x2="63.281" y2="13" xlink:href="#linear-gradient"/><linearGradient id="linear-gradient-6" y1="42" x2="63.281" y2="42" xlink:href="#linear-gradient"/><linearGradient id="linear-gradient-7" y1="12.73" x2="63.281" y2="12.73" xlink:href="#linear-gradient"/><linearGradient id="linear-gradient-8" y1="51.793" x2="63.281" y2="51.793" xlink:href="#linear-gradient"/><linearGradient id="linear-gradient-9" y1="57" x2="63.281" y2="57" xlink:href="#linear-gradient"/><linearGradient id="linear-gradient-10" y1="41" x2="63.281" y2="41" xlink:href="#linear-gradient"/><linearGradient id="linear-gradient-12" y1="49" x2="63.281" y2="49" xlink:href="#linear-gradient"/></defs><g id="Gradient_outline" data-name="Gradient outline"><path d="M27,27V23a1,1,0,0,0-1-1H22a1,1,0,0,0-1,1v4a1,1,0,0,0,1,1h4A1,1,0,0,0,27,27Zm-2-1H23V24h2Z" style="fill:url(#linear-gradient)"/><path d="M46,43V40H43V38H41v2H39V38H37v2H35V38H33v2H31a1,1,0,0,1-1-1V34h4v2h2V34h2v2h2V34h2v2h2V34h2v2h2V34h1V29a5,5,0,0,0-4.925-5L30.923,22.122A5.009,5.009,0,0,0,26,18H20a5.006,5.006,0,0,0-5,5v6a5.006,5.006,0,0,0,5,5v5a7.009,7.009,0,0,0,7,7H43A3,3,0,0,0,46,43ZM22,39V32H20a3,3,0,0,1-3-3V23a3,3,0,0,1,3-3h6a3,3,0,0,1,3,3v.867L43.858,25.99,44,26a3,3,0,0,1,3,3v3H26v2h2v5a3,3,0,0,0,3,3H44v1a1,1,0,0,1-1,1H27A5.006,5.006,0,0,1,22,39Z" style="fill:url(#linear-gradient-2)"/><rect x="40.5" y="25.95" width="2" height="5.099" transform="translate(5.415 63.605) rotate(-78.69)" style="fill:url(#linear-gradient-3)"/><path d="M32,2A30,30,0,1,0,62,32,30.034,30.034,0,0,0,32,2Zm0,58A28,28,0,1,1,60,32,28.032,28.032,0,0,1,32,60Z" style="fill:url(#linear-gradient-2)"/><path d="M42,17a4,4,0,1,0-4-4A4,4,0,0,0,42,17Zm0-6a2,2,0,1,1-2,2A2,2,0,0,1,42,11Z" style="fill:url(#linear-gradient-5)"/><path d="M12,38a4,4,0,1,0,4,4A4,4,0,0,0,12,38Zm0,6a2,2,0,1,1,2-2A2,2,0,0,1,12,44Z" style="fill:url(#linear-gradient-6)"/><path d="M31.93,8,32.071,6c-.143-.015-14.728-.891-21.952,12.523l1.762.948C18.479,7.222,31.389,7.962,31.93,8Z" style="fill:url(#linear-gradient-7)"/><path d="M32,56v2c.6,0,14.7-.132,19.91-11.586l-1.82-.828C45.422,55.856,32.133,56,32,56Z" style="fill:url(#linear-gradient-8)"/><rect x="28" y="56" width="2" height="2" style="fill:url(#linear-gradient-9)"/><path d="M50,41a3,3,0,1,0,3-3A3,3,0,0,0,50,41Zm3-1a1,1,0,1,1-1,1A1,1,0,0,1,53,40Z" style="fill:url(#linear-gradient-10)"/><rect x="31" y="12" width="4" height="2" style="fill:url(#linear-gradient-5)"/><rect x="18" y="48" width="4" height="2" style="fill:url(#linear-gradient-12)"/><rect x="7" y="31" width="4" height="2" style="fill:url(#linear-gradient-2)"/></g></svg>
